<!-- Generated by IcoMoon.io -->
<svg version="1.1" xmlns="http://www.w3.org/2000/svg" width="32" height="32" viewBox="0 0 32 32">
<title>search</title>
<path d="M30.733 28.143c0.357 0.357 0.357 0.937 0 1.295l-1.295 1.295c-0.358 0.357-0.938 0.357-1.295 0l-9.064-9.064c-0.098-0.098-0.164-0.215-0.208-0.338-1.859 1.358-4.142 2.169-6.621 2.169-6.213 0-11.25-5.037-11.25-11.25s5.037-11.25 11.25-11.25c6.213 0 11.25 5.037 11.25 11.25 0 2.48-0.811 4.762-2.169 6.621 0.124 0.044 0.24 0.109 0.338 0.208l9.064 9.064zM12.25 4.75c-4.142 0-7.5 3.358-7.5 7.5s3.358 7.5 7.5 7.5 7.5-3.358 7.5-7.5c0-4.142-3.358-7.5-7.5-7.5z"></path>
</svg>
